<mxfile host="app.diagrams.net" modified="2023-04-29T10:58:01.797Z" agent="Mozilla/5.0 (Windows NT 10.0; Win64; x64) AppleWebKit/537.36 (KHTML, like Gecko) Chrome/112.0.0.0 Safari/537.36 Edg/112.0.1722.39" etag="kbzbLZt3I3VprI8l5Hpd" version="21.2.3" type="device">
  <diagram name="Page-1" id="s8dGwcTig_4Dlxki5kgS">
    <mxGraphModel dx="2074" dy="788" grid="1" gridSize="10" guides="1" tooltips="1" connect="1" arrows="1" fold="1" page="1" pageScale="1" pageWidth="827" pageHeight="1169" math="0" shadow="0">
      <root>
        <mxCell id="0" />
        <mxCell id="1" parent="0" />
        <mxCell id="jk9BCoU6x-NLGkvjPwO6-19" style="edgeStyle=orthogonalEdgeStyle;rounded=0;orthogonalLoop=1;jettySize=auto;html=1;entryX=-0.006;entryY=0.433;entryDx=0;entryDy=0;entryPerimeter=0;" edge="1" parent="1" source="jk9BCoU6x-NLGkvjPwO6-1" target="jk9BCoU6x-NLGkvjPwO6-5">
          <mxGeometry relative="1" as="geometry">
            <Array as="points">
              <mxPoint x="160" y="279" />
            </Array>
          </mxGeometry>
        </mxCell>
        <mxCell id="jk9BCoU6x-NLGkvjPwO6-1" value="Android" style="rounded=1;whiteSpace=wrap;html=1;fillColor=#d5e8d4;strokeColor=#82b366;" vertex="1" parent="1">
          <mxGeometry x="80" y="120" width="120" height="60" as="geometry" />
        </mxCell>
        <mxCell id="jk9BCoU6x-NLGkvjPwO6-28" style="edgeStyle=orthogonalEdgeStyle;rounded=0;orthogonalLoop=1;jettySize=auto;html=1;entryX=0.25;entryY=0;entryDx=0;entryDy=0;" edge="1" parent="1" source="jk9BCoU6x-NLGkvjPwO6-2" target="jk9BCoU6x-NLGkvjPwO6-5">
          <mxGeometry relative="1" as="geometry">
            <Array as="points">
              <mxPoint x="340" y="200" />
              <mxPoint x="340" y="200" />
            </Array>
          </mxGeometry>
        </mxCell>
        <mxCell id="jk9BCoU6x-NLGkvjPwO6-2" value="Desktop" style="rounded=1;whiteSpace=wrap;html=1;fillColor=#ffe6cc;strokeColor=#d79b00;" vertex="1" parent="1">
          <mxGeometry x="240" y="120" width="120" height="60" as="geometry" />
        </mxCell>
        <mxCell id="jk9BCoU6x-NLGkvjPwO6-27" style="edgeStyle=orthogonalEdgeStyle;rounded=0;orthogonalLoop=1;jettySize=auto;html=1;entryX=0.75;entryY=0;entryDx=0;entryDy=0;" edge="1" parent="1" source="jk9BCoU6x-NLGkvjPwO6-3" target="jk9BCoU6x-NLGkvjPwO6-5">
          <mxGeometry relative="1" as="geometry">
            <Array as="points">
              <mxPoint x="420" y="200" />
              <mxPoint x="420" y="200" />
            </Array>
          </mxGeometry>
        </mxCell>
        <mxCell id="jk9BCoU6x-NLGkvjPwO6-3" value="iOS&lt;br&gt;(not included)" style="rounded=1;whiteSpace=wrap;html=1;fillColor=#f8cecc;strokeColor=#b85450;" vertex="1" parent="1">
          <mxGeometry x="400" y="120" width="120" height="60" as="geometry" />
        </mxCell>
        <mxCell id="jk9BCoU6x-NLGkvjPwO6-20" style="edgeStyle=orthogonalEdgeStyle;rounded=0;orthogonalLoop=1;jettySize=auto;html=1;entryX=1.006;entryY=0.433;entryDx=0;entryDy=0;entryPerimeter=0;" edge="1" parent="1" source="jk9BCoU6x-NLGkvjPwO6-4" target="jk9BCoU6x-NLGkvjPwO6-5">
          <mxGeometry relative="1" as="geometry">
            <Array as="points">
              <mxPoint x="600" y="279" />
            </Array>
          </mxGeometry>
        </mxCell>
        <mxCell id="jk9BCoU6x-NLGkvjPwO6-4" value="Web" style="rounded=1;whiteSpace=wrap;html=1;fillColor=#e1d5e7;strokeColor=#9673a6;" vertex="1" parent="1">
          <mxGeometry x="560" y="120" width="120" height="60" as="geometry" />
        </mxCell>
        <mxCell id="jk9BCoU6x-NLGkvjPwO6-13" style="edgeStyle=orthogonalEdgeStyle;rounded=0;orthogonalLoop=1;jettySize=auto;html=1;entryX=0.5;entryY=0;entryDx=0;entryDy=0;" edge="1" parent="1" source="jk9BCoU6x-NLGkvjPwO6-5" target="jk9BCoU6x-NLGkvjPwO6-12">
          <mxGeometry relative="1" as="geometry" />
        </mxCell>
        <mxCell id="jk9BCoU6x-NLGkvjPwO6-5" value=":sharedui" style="rounded=1;whiteSpace=wrap;html=1;fillColor=#dae8fc;strokeColor=#6c8ebf;verticalAlign=middle;labelPosition=center;verticalLabelPosition=middle;align=center;" vertex="1" parent="1">
          <mxGeometry x="300" y="240" width="160" height="90" as="geometry" />
        </mxCell>
        <mxCell id="jk9BCoU6x-NLGkvjPwO6-12" value=":domain" style="rounded=1;whiteSpace=wrap;html=1;fillColor=#dae8fc;strokeColor=#6c8ebf;" vertex="1" parent="1">
          <mxGeometry x="320" y="390" width="120" height="60" as="geometry" />
        </mxCell>
        <mxCell id="jk9BCoU6x-NLGkvjPwO6-15" value="@Composable&lt;br&gt;HelloWorld" style="ellipse;whiteSpace=wrap;html=1;fillColor=#b1ddf0;strokeColor=#10739e;" vertex="1" parent="1">
          <mxGeometry x="390" y="290" width="100" height="60" as="geometry" />
        </mxCell>
      </root>
    </mxGraphModel>
  </diagram>
</mxfile>
